<svg width="179" height="48" viewBox="0 0 179 48" fill="none" xmlns="http://www.w3.org/2000/svg">
<rect x="0.5" y="0.5" width="178" height="47" rx="23.5" stroke="white"/>
<path d="M29.92 30.24C29.1947 30.24 28.504 30.112 27.848 29.856C27.192 29.5947 26.6107 29.2107 26.104 28.704C25.6027 28.1973 25.2053 27.5707 24.912 26.824C24.624 26.0773 24.48 25.216 24.48 24.24C24.48 22.9653 24.7227 21.8827 25.208 20.992C25.6987 20.096 26.3547 19.4133 27.176 18.944C28.0027 18.4747 28.9173 18.24 29.92 18.24C31.4027 18.24 32.568 18.584 33.416 19.272C34.264 19.96 34.832 20.9333 35.12 22.192L32.896 22.512C32.688 21.84 32.3467 21.304 31.872 20.904C31.4027 20.4987 30.8 20.2933 30.064 20.288C29.3333 20.2773 28.7253 20.4347 28.24 20.76C27.7547 21.0853 27.3893 21.5467 27.144 22.144C26.904 22.7413 26.784 23.44 26.784 24.24C26.784 25.04 26.904 25.7333 27.144 26.32C27.3893 26.9067 27.7547 27.3627 28.24 27.688C28.7253 28.0133 29.3333 28.1813 30.064 28.192C30.56 28.2027 31.008 28.1173 31.408 27.936C31.8133 27.7547 32.1547 27.4693 32.432 27.08C32.7093 26.6907 32.9067 26.192 33.024 25.584H31.2V23.904H35.344C35.3547 23.9733 35.3627 24.096 35.368 24.272C35.3733 24.448 35.376 24.5493 35.376 24.576C35.376 25.68 35.152 26.6587 34.704 27.512C34.256 28.3653 33.624 29.0347 32.808 29.52C31.992 30 31.0293 30.24 29.92 30.24ZM40.6754 30.24C39.79 30.24 39.0087 30.0507 38.3314 29.672C37.6594 29.288 37.1314 28.7627 36.7474 28.096C36.3687 27.424 36.1794 26.656 36.1794 25.792C36.1794 24.848 36.366 24.0267 36.7394 23.328C37.1127 22.6293 37.6274 22.088 38.2834 21.704C38.9394 21.3147 39.694 21.12 40.5474 21.12C41.454 21.12 42.2247 21.3333 42.8594 21.76C43.494 22.1867 43.9634 22.7867 44.2674 23.56C44.5714 24.3333 44.678 25.2427 44.5874 26.288H42.4354V25.488C42.4354 24.608 42.294 23.976 42.0114 23.592C41.734 23.2027 41.278 23.008 40.6434 23.008C39.902 23.008 39.3554 23.2347 39.0034 23.688C38.6567 24.136 38.4834 24.8 38.4834 25.68C38.4834 26.4853 38.6567 27.1093 39.0034 27.552C39.3554 27.9893 39.87 28.208 40.5474 28.208C40.974 28.208 41.3394 28.1147 41.6434 27.928C41.9474 27.7413 42.1794 27.472 42.3394 27.12L44.5154 27.744C44.19 28.5333 43.6754 29.1467 42.9714 29.584C42.2727 30.0213 41.5074 30.24 40.6754 30.24ZM37.8114 26.288V24.672H43.5394V26.288H37.8114ZM51.2578 30C50.6604 30.112 50.0738 30.16 49.4978 30.144C48.9271 30.1333 48.4151 30.0347 47.9618 29.848C47.5138 29.656 47.1724 29.3493 46.9378 28.928C46.7244 28.5333 46.6124 28.1333 46.6018 27.728C46.5911 27.3173 46.5858 26.8533 46.5858 26.336V18.96H48.7618V26.208C48.7618 26.544 48.7644 26.848 48.7698 27.12C48.7804 27.3867 48.8364 27.6 48.9378 27.76C49.1298 28.064 49.4364 28.2293 49.8578 28.256C50.2791 28.2827 50.7458 28.2613 51.2578 28.192V30ZM45.1138 23.04V21.36H51.2578V23.04H45.1138ZM59.1222 30.24C58.0342 30.24 57.1542 29.9947 56.4822 29.504C55.8156 29.008 55.4102 28.3093 55.2662 27.408L57.4902 27.072C57.5809 27.4773 57.7809 27.7947 58.0902 28.024C58.4049 28.2533 58.8022 28.368 59.2822 28.368C59.6769 28.368 59.9809 28.2933 60.1942 28.144C60.4076 27.9893 60.5142 27.776 60.5142 27.504C60.5142 27.3333 60.4716 27.1973 60.3862 27.096C60.3009 26.9893 60.1089 26.8853 59.8102 26.784C59.5169 26.6827 59.0582 26.5493 58.4342 26.384C57.7302 26.2027 57.1676 26 56.7462 25.776C56.3249 25.552 56.0209 25.2853 55.8342 24.976C55.6476 24.6613 55.5542 24.2827 55.5542 23.84C55.5542 23.2853 55.6956 22.8053 55.9782 22.4C56.2609 21.9893 56.6582 21.6747 57.1702 21.456C57.6876 21.232 58.2956 21.12 58.9942 21.12C59.6716 21.12 60.2716 21.224 60.7942 21.432C61.3169 21.64 61.7382 21.936 62.0582 22.32C62.3836 22.704 62.5836 23.1573 62.6582 23.68L60.4342 24.08C60.3969 23.76 60.2582 23.5067 60.0182 23.32C59.7782 23.1333 59.4529 23.024 59.0422 22.992C58.6422 22.9653 58.3196 23.0187 58.0742 23.152C57.8342 23.2853 57.7142 23.4773 57.7142 23.728C57.7142 23.8773 57.7649 24.0027 57.8662 24.104C57.9729 24.2053 58.1889 24.3093 58.5142 24.416C58.8449 24.5227 59.3462 24.6613 60.0182 24.832C60.6742 25.0027 61.1996 25.2027 61.5942 25.432C61.9942 25.656 62.2849 25.928 62.4662 26.248C62.6476 26.5627 62.7382 26.944 62.7382 27.392C62.7382 28.2773 62.4182 28.9733 61.7782 29.48C61.1382 29.9867 60.2529 30.24 59.1222 30.24ZM69.3603 30C68.7629 30.112 68.1763 30.16 67.6003 30.144C67.0296 30.1333 66.5176 30.0347 66.0643 29.848C65.6163 29.656 65.2749 29.3493 65.0403 28.928C64.8269 28.5333 64.7149 28.1333 64.7043 27.728C64.6936 27.3173 64.6883 26.8533 64.6883 26.336V18.96H66.8643V26.208C66.8643 26.544 66.8669 26.848 66.8723 27.12C66.8829 27.3867 66.9389 27.6 67.0403 27.76C67.2323 28.064 67.5389 28.2293 67.9603 28.256C68.3816 28.2827 68.8483 28.2613 69.3603 28.192V30ZM63.2163 23.04V21.36H69.3603V23.04H63.2163ZM73.3656 30.24C72.747 30.24 72.2216 30.1227 71.7896 29.888C71.363 29.648 71.0376 29.3307 70.8136 28.936C70.595 28.536 70.4856 28.096 70.4856 27.616C70.4856 27.216 70.547 26.8507 70.6696 26.52C70.7923 26.1893 70.9896 25.8987 71.2616 25.648C71.539 25.392 71.9096 25.1787 72.3736 25.008C72.6936 24.8907 73.075 24.7867 73.5176 24.696C73.9603 24.6053 74.4616 24.52 75.0216 24.44C75.5816 24.3547 76.1976 24.2613 76.8696 24.16L76.0856 24.592C76.0856 24.08 75.963 23.704 75.7176 23.464C75.4723 23.224 75.0616 23.104 74.4856 23.104C74.1656 23.104 73.8323 23.1813 73.4856 23.336C73.139 23.4907 72.8963 23.7653 72.7576 24.16L70.7896 23.536C71.0083 22.8213 71.419 22.24 72.0216 21.792C72.6243 21.344 73.4456 21.12 74.4856 21.12C75.2483 21.12 75.9256 21.2373 76.5176 21.472C77.1096 21.7067 77.5576 22.112 77.8616 22.688C78.0323 23.008 78.1336 23.328 78.1656 23.648C78.1976 23.968 78.2136 24.3253 78.2136 24.72V30H76.3096V28.224L76.5816 28.592C76.1603 29.1733 75.7043 29.5947 75.2136 29.856C74.7283 30.112 74.1123 30.24 73.3656 30.24ZM73.8296 28.528C74.2296 28.528 74.5656 28.4587 74.8376 28.32C75.115 28.176 75.3336 28.0133 75.4936 27.832C75.659 27.6507 75.771 27.4987 75.8296 27.376C75.9416 27.1413 76.0056 26.8693 76.0216 26.56C76.043 26.2453 76.0536 25.984 76.0536 25.776L76.6936 25.936C76.0483 26.0427 75.5256 26.1333 75.1256 26.208C74.7256 26.2773 74.403 26.3413 74.1576 26.4C73.9123 26.4587 73.6963 26.5227 73.5096 26.592C73.2963 26.6773 73.123 26.7707 72.9896 26.872C72.8616 26.968 72.7656 27.0747 72.7016 27.192C72.643 27.3093 72.6136 27.44 72.6136 27.584C72.6136 27.7813 72.6616 27.952 72.7576 28.096C72.859 28.2347 73.0003 28.3413 73.1816 28.416C73.363 28.4907 73.579 28.528 73.8296 28.528ZM79.9737 30V21.36H81.8937V23.472L81.6857 23.2C81.7977 22.9013 81.9471 22.6293 82.1337 22.384C82.3204 22.1387 82.5497 21.936 82.8217 21.776C83.0297 21.648 83.2564 21.5493 83.5017 21.48C83.7471 21.4053 84.0004 21.36 84.2617 21.344C84.5231 21.3227 84.7844 21.328 85.0457 21.36V23.392C84.8057 23.3173 84.5257 23.2933 84.2057 23.32C83.8911 23.3413 83.6057 23.4133 83.3497 23.536C83.0937 23.6533 82.8777 23.8107 82.7017 24.008C82.5257 24.2 82.3924 24.4293 82.3017 24.696C82.2111 24.9573 82.1657 25.2533 82.1657 25.584V30H79.9737ZM91.4315 30C90.8342 30.112 90.2475 30.16 89.6715 30.144C89.1008 30.1333 88.5888 30.0347 88.1355 29.848C87.6875 29.656 87.3462 29.3493 87.1115 28.928C86.8982 28.5333 86.7862 28.1333 86.7755 27.728C86.7648 27.3173 86.7595 26.8533 86.7595 26.336V18.96H88.9355V26.208C88.9355 26.544 88.9382 26.848 88.9435 27.12C88.9542 27.3867 89.0102 27.6 89.1115 27.76C89.3035 28.064 89.6102 28.2293 90.0315 28.256C90.4528 28.2827 90.9195 28.2613 91.4315 28.192V30ZM85.2875 23.04V21.36H91.4315V23.04H85.2875ZM96.5841 30.24C95.6988 30.24 94.9175 30.0507 94.2401 29.672C93.5681 29.288 93.0401 28.7627 92.6561 28.096C92.2775 27.424 92.0881 26.656 92.0881 25.792C92.0881 24.848 92.2748 24.0267 92.6481 23.328C93.0215 22.6293 93.5361 22.088 94.1921 21.704C94.8481 21.3147 95.6028 21.12 96.4561 21.12C97.3628 21.12 98.1335 21.3333 98.7681 21.76C99.4028 22.1867 99.8721 22.7867 100.176 23.56C100.48 24.3333 100.587 25.2427 100.496 26.288H98.3441V25.488C98.3441 24.608 98.2028 23.976 97.9201 23.592C97.6428 23.2027 97.1868 23.008 96.5521 23.008C95.8108 23.008 95.2641 23.2347 94.9121 23.688C94.5655 24.136 94.3921 24.8 94.3921 25.68C94.3921 26.4853 94.5655 27.1093 94.9121 27.552C95.2641 27.9893 95.7788 28.208 96.4561 28.208C96.8828 28.208 97.2481 28.1147 97.5521 27.928C97.8561 27.7413 98.0881 27.472 98.2481 27.12L100.424 27.744C100.099 28.5333 99.5841 29.1467 98.8801 29.584C98.1815 30.0213 97.4161 30.24 96.5841 30.24ZM93.7201 26.288V24.672H99.4481V26.288H93.7201ZM105.487 30.24C104.692 30.24 103.996 30.04 103.399 29.64C102.801 29.24 102.335 28.696 101.999 28.008C101.668 27.32 101.503 26.544 101.503 25.68C101.503 24.8 101.671 24.0187 102.007 23.336C102.348 22.648 102.825 22.1067 103.439 21.712C104.052 21.3173 104.772 21.12 105.599 21.12C106.42 21.12 107.111 21.32 107.671 21.72C108.231 22.12 108.655 22.664 108.943 23.352C109.231 24.04 109.375 24.816 109.375 25.68C109.375 26.544 109.228 27.32 108.935 28.008C108.647 28.696 108.215 29.24 107.639 29.64C107.063 30.04 106.345 30.24 105.487 30.24ZM105.839 28.304C106.324 28.304 106.711 28.1947 106.999 27.976C107.292 27.7573 107.503 27.4507 107.631 27.056C107.759 26.6613 107.823 26.2027 107.823 25.68C107.823 25.1573 107.759 24.6987 107.631 24.304C107.503 23.9093 107.297 23.6027 107.015 23.384C106.737 23.1653 106.372 23.056 105.919 23.056C105.433 23.056 105.033 23.176 104.719 23.416C104.409 23.6507 104.18 23.968 104.031 24.368C103.881 24.7627 103.807 25.2 103.807 25.68C103.807 26.1653 103.879 26.608 104.023 27.008C104.167 27.4027 104.388 27.7173 104.687 27.952C104.985 28.1867 105.369 28.304 105.839 28.304ZM107.823 30V24.08H107.551V18.48H109.743V30H107.823Z" fill="#E9E6FF"/>
<path d="M147 30.6667L155 24L147 17.3334" stroke="#E9E6FF" stroke-width="2" stroke-linecap="round" stroke-linejoin="round"/>
<path d="M135 23.9994H155" stroke="#E9E6FF" stroke-width="2" stroke-linecap="round" stroke-linejoin="round"/>
</svg>
